<?xml version="1.0" encoding="utf-8"?>
<!-- Generator: Adobe Illustrator 24.0.1, SVG Export Plug-In . SVG Version: 6.00 Build 0)  -->
<svg version="1.1" id="Capa_1" xmlns="http://www.w3.org/2000/svg" xmlns:xlink="http://www.w3.org/1999/xlink" x="0px" y="0px"
	 viewBox="0 0 512 512" style="enable-background:new 0 0 512 512;" xml:space="preserve">
<g>
	<path d="M200.7,65.7c0-8.1,0-15.7,0-23.3c0-8.1,1.9-10,10-10c30.4,0,60.9,0,91.3,0c7.1,0,9.2,2.1,9.2,9.4c0,7.8,0,15.5,0,23.9
		c2.1,0,3.8,0,5.4,0c11.8,0,23.6,0,35.3,0c15.1,0,21.9,6.7,21.9,21.7c0,56.8,0,113.5,0,170.3c0,66.9,0,133.7,0,200.6
		c0,14.5-6.8,21.4-21.4,21.4c-64.4,0-128.8,0-193.2,0c-14.1,0-21-6.9-21-21.1c0-124.2,0-248.5,0-372.7c0-12.9,7.2-20.1,20.2-20.1
		c12.2,0,24.5,0,36.7,0C196.8,65.7,198.4,65.7,200.7,65.7z M345.9,93.8c-60.2,0-120,0-179.7,0c0,119.5,0,238.7,0,357.8
		c60.1,0,119.8,0,179.7,0C345.9,332.2,345.9,213.2,345.9,93.8z"/>
	<path d="M323.1,106.7c7.7,0,9.8,2.1,9.8,9.8c0,25.9,0,51.7,0,77.6c0,8-2.1,10.1-10,10.1c-44.7,0-89.4,0-134,0
		c-7.6,0-9.9-2.2-9.9-9.8c0-26,0-52,0-78c0-7.4,2.2-9.6,9.6-9.6L323.1,106.7z"/>
	<path d="M256,321.3c-22.5,0-45,0-67.5,0c-7.4,0-9.6-2.1-9.6-9.6c0-26,0-52,0-78c0-7.6,2.2-9.7,9.9-9.7c44.5,0,89,0,133.5,0
		c8.6,0,10.5,1.8,10.5,10.5c0,25.4,0,50.8,0,76.2c0,8.7-1.8,10.6-10.4,10.6C300.4,321.3,278.2,321.3,256,321.3
		C256,321.3,256,321.3,256,321.3z"/>
	<path d="M256,341.2c22.3,0,44.7,0,67,0c7.7,0,9.9,2.1,9.9,9.8c0,25.9,0,51.7,0,77.6c0,8-2,10-10.1,10c-44.5,0-89,0-133.5,0
		c-8.6,0-10.3-1.8-10.4-10.6c0-25.4,0-50.8,0-76.2c0-8.6,1.9-10.5,10.5-10.5C211.7,341.2,233.8,341.2,256,341.2z"/>
</g>
</svg>
