<?xml version="1.0" encoding="UTF-8"?>
<svg xmlns="http://www.w3.org/2000/svg" xmlns:xlink="http://www.w3.org/1999/xlink" width="45px" height="45px" viewBox="0 0 45 45" version="1.1">
<g id="surface1">
<path style=" stroke:none;fill-rule:nonzero;fill:rgb(0%,0%,0%);fill-opacity:1;" d="M 10.671875 9.476562 C 10.335938 9.574219 9.9375 9.878906 9.726562 10.1875 C 9.414062 10.644531 9.394531 10.746094 9.414062 12.292969 L 9.425781 13.644531 L 9.550781 13.894531 C 9.742188 14.285156 10.058594 14.601562 10.449219 14.796875 L 10.785156 14.964844 L 34.214844 14.964844 L 34.550781 14.796875 C 34.941406 14.601562 35.257812 14.285156 35.449219 13.894531 L 35.574219 13.644531 L 35.574219 10.746094 L 35.429688 10.445312 C 35.238281 10.066406 34.933594 9.761719 34.554688 9.570312 L 34.253906 9.425781 L 22.566406 9.417969 C 12.445312 9.414062 10.851562 9.417969 10.671875 9.476562 Z M 10.671875 9.476562 "/>
<path style=" stroke:none;fill-rule:nonzero;fill:rgb(0%,0%,0%);fill-opacity:1;" d="M 10.796875 18.8125 C 10.3125 18.925781 9.8125 19.335938 9.574219 19.8125 L 9.425781 20.105469 L 9.425781 23.003906 L 9.570312 23.304688 C 9.761719 23.683594 10.066406 23.988281 10.445312 24.179688 L 10.746094 24.324219 L 34.253906 24.324219 L 34.554688 24.179688 C 34.933594 23.988281 35.238281 23.683594 35.429688 23.304688 L 35.574219 23.003906 L 35.574219 20.105469 L 35.425781 19.8125 C 35.238281 19.4375 34.902344 19.113281 34.511719 18.925781 L 34.210938 18.785156 L 22.585938 18.777344 C 15.929688 18.777344 10.894531 18.789062 10.796875 18.8125 Z M 10.796875 18.8125 "/>
<path style=" stroke:none;fill-rule:nonzero;fill:rgb(0%,0%,0%);fill-opacity:1;" d="M 10.761719 28.203125 C 10.226562 28.34375 9.8125 28.695312 9.5625 29.21875 L 9.425781 29.507812 L 9.425781 32.367188 L 9.550781 32.625 C 9.714844 32.980469 9.941406 33.246094 10.25 33.445312 C 10.757812 33.773438 9.800781 33.75 22.5 33.75 C 35.199219 33.75 34.242188 33.773438 34.75 33.445312 C 35.058594 33.246094 35.285156 32.980469 35.449219 32.625 L 35.574219 32.367188 L 35.574219 29.507812 L 35.4375 29.222656 C 35.265625 28.859375 35.074219 28.640625 34.746094 28.429688 C 34.242188 28.101562 35.199219 28.125 22.46875 28.128906 C 11.84375 28.128906 11.03125 28.132812 10.761719 28.203125 Z M 10.761719 28.203125 "/>
</g>
</svg>
