<?xml version="1.0" encoding="utf-8"?>
<!-- Svg Vector Icons : http://www.onlinewebfonts.com/icon -->
<!DOCTYPE svg PUBLIC "-//W3C//DTD SVG 1.1//EN" "http://www.w3.org/Graphics/SVG/1.1/DTD/svg11.dtd">
<svg version="1.1" xmlns="http://www.w3.org/2000/svg" xmlns:xlink="http://www.w3.org/1999/xlink" x="0px" y="0px" viewBox="0 0 256 256" enable-background="new 0 0 256 256" xml:space="preserve">
<metadata> Svg Vector Icons : http://www.onlinewebfonts.com/icon </metadata>
<g><g><g><path fill="#000000" d="M112.9,19.1c-27.7,3.6-55.2,18.2-73.4,39C25.7,74,16,93.4,11.9,113.9c-1.8,9.1-2.5,27.2-1.3,36.6c3.9,31.8,20.8,61.1,46.3,80.3c7.5,5.7,9.4,6.6,13.4,6.6c2.8,0,4.2-0.5,7.3-2.4c9.8-6,20.3-10.2,31.7-12.6c9.7-2.1,27.8-2.1,37.5,0c11.4,2.5,20.4,6.1,31.1,12.3c3.9,2.3,5.2,2.7,8.1,2.7c3.2,0,4.1-0.3,9.2-3.8c22.2-15.1,39.6-39.4,46.6-65.2c2.7-10,3.7-16.7,4.1-27.7c0.6-15.6-1.1-27.1-5.9-41.6c-14.2-42.6-51.1-73.4-95.9-79.8C136.7,18.3,120.2,18.2,112.9,19.1z M147.3,43.3c38.3,7.9,68.2,39,74.5,77.8c1.3,7.9,1.3,23.1-0.1,31c-1.3,7.4-5.3,20-8.4,26.3c-5.4,10.6-15.4,23.2-24.5,30.9l-3.3,2.8l-6.8-3.2c-32.8-15.2-68.9-15.2-101.7,0.1l-6.5,3.1l-2.6-2.1c-4.9-3.9-15.2-15.3-18.9-20.8c-10.9-16.4-16-33.4-16-52.8c0.1-30.8,13.8-58.1,38.4-76.5C92.5,44.3,121.2,38,147.3,43.3z"/><path fill="#000000" d="M124.4,54.3c-1.2,1.2-1.3,2.2-1.3,10.4c0,4.9,0.3,9.6,0.7,10.2c1.5,2.9,7.7,2.7,8.9-0.3c0.2-0.6,0.4-5.1,0.4-10c0-8-0.1-9-1.3-10.2c-0.8-0.8-2.2-1.3-3.7-1.3C126.6,53,125.2,53.5,124.4,54.3z"/><path fill="#000000" d="M85.7,64.9c-1.1,1.1-1.9,2.5-1.9,3.2c0,1.4,6.9,13.8,8.8,16c2.5,2.9,8.3,1.3,8.5-2.3c0.2-2.3-0.2-3.3-4.2-10.2C91.8,62.5,89.5,61.2,85.7,64.9z"/><path fill="#000000" d="M164.5,63.7c-2.1,1.1-9.8,14.4-9.8,17.2c0,2.8,2.1,4.7,5.3,4.7c2.6,0,3.7-1.3,8.6-9.9c3.7-6.5,4.1-8.8,1.4-11.2C168.1,62.8,166.7,62.6,164.5,63.7z"/><path fill="#000000" d="M57.6,93c-2.1,1.7-2.5,5.8-0.5,7.4c2.6,2.3,14.3,8.5,15.8,8.5c3.9,0,6.5-3.7,4.8-7.1c-1-2-14.5-10.2-16.9-10.2C60,91.6,58.6,92.2,57.6,93z"/><path fill="#000000" d="M186.5,95.8c-4.1,2.3-7.7,4.9-8.2,5.8c-1.7,3.2,0.8,7.3,4.5,7.3c1.9,0,15.2-7.3,16.6-9.1c0.4-0.6,0.8-2.1,0.8-3.3c0-2.5-2.5-4.9-4.9-4.9C194.5,91.6,190.5,93.5,186.5,95.8z"/><path fill="#000000" d="M151,115.8c-18.2,8-19,8.3-22.3,7.9c-12.4-1.5-21.4,11.3-16,22.7c1.9,4,3.7,5.8,7.7,7.6c8.9,4.1,19.3-0.8,22-10.2c0.7-2.7,2.5-4.6,16-17.4c15.3-14.4,16.6-16,14.4-18.1c-0.5-0.5-1.3-0.8-1.8-0.7C170.4,107.6,161.4,111.3,151,115.8z"/><path fill="#000000" d="M48.1,131.1c-3.4,1.5-4,5.4-1.3,8c1.5,1.6,1.9,1.7,10.5,1.7c10,0,11.4-0.5,12.2-4.4c0.3-1.6,0-2.5-1.3-4c-1.7-1.9-1.7-1.9-9.9-2.1C52.5,130.2,49.6,130.4,48.1,131.1z"/><path fill="#000000" d="M189.8,130.8c-1.9,0.7-3.6,3.2-3.6,5.2c0,0.8,0.7,2.3,1.7,3.1c1.5,1.6,1.9,1.7,10.6,1.7c8.7,0,9.1-0.1,10.6-1.7c2.9-2.8,1.9-6.9-1.9-8.3C205,130,191.8,130,189.8,130.8z"/><path fill="#000000" d="M64.2,166.3c-3.9,2.3-7.5,4.7-7.8,5.1c-1.1,1.7-0.7,5.2,0.7,6.6c2.2,2.2,4.9,1.7,11.8-2.4c7.8-4.5,9-5.5,9-8.3c0-2.5-2.7-5.3-5.1-5.2C72.1,162.1,68.2,164,64.2,166.3z"/><path fill="#000000" d="M180.4,162.9c-0.8,0.4-1.8,1.6-2.3,2.7c-1.3,3.1,0.2,4.9,8,9.6c7.6,4.6,10.3,5.2,12.6,2.9c1.6-1.6,1.8-5.5,0.3-6.9c-1.7-1.7-14.8-9.1-16.1-9C182.4,162.1,181.2,162.5,180.4,162.9z"/></g></g></g>
</svg>